<?xml version="1.0" encoding="UTF-8"?>
<svg width="24px" height="24px" viewBox="0 0 24 24" version="1.1" xmlns="http://www.w3.org/2000/svg">
    <path d="M8,24 C10.208,24 12,22.208 12,20 C12,17.792 10.208,16 8,16 C5.792,16 4,17.792 4,20 C4,22.208 5.792,24 8,24 Z" fill="currentColor"/>
    <path d="M8,16 C10.208,16 12,14.208 12,12 C12,9.792 10.208,8 8,8 C5.792,8 4,9.792 4,12 C4,14.208 5.792,16 8,16 Z" fill="currentColor"/>
    <path d="M16,8 C13.792,8 12,9.792 12,12 C12,14.208 13.792,16 16,16 C18.208,16 20,14.208 20,12 C20,9.792 18.208,8 16,8 Z" fill="currentColor"/>
    <path d="M8,8 C10.208,8 12,6.208 12,4 C12,1.792 10.208,0 8,0 C5.792,0 4,1.792 4,4 C4,6.208 5.792,8 8,8 Z" fill="currentColor"/>
    <path d="M16,0 C13.792,0 12,1.792 12,4 C12,6.208 13.792,8 16,8 C18.208,8 20,6.208 20,4 C20,1.792 18.208,0 16,0 Z" fill="currentColor"/>
</svg> 